<?xml version="1.0" encoding="UTF-8"?>
<svg id="_图层_2" data-name="图层 2" xmlns="http://www.w3.org/2000/svg" viewBox="0 0 194 194">
  <defs>
    <style>
      .cls-1 {
        fill: #ff6c37;
      }

      .cls-2 {
        fill: none;
      }
    </style>
  </defs>
  <g id="_图层_1-2" data-name="图层 1">
    <g>
      <path class="cls-1" d="M97,27c-29.45,0-48.46,19.02-48.46,48.46s19.02,48.46,48.46,48.46h48.46v-48.46c0-29.45-19.02-48.46-48.46-48.46Zm16.15,64.61h-16.15c-9.81,0-16.15-6.34-16.15-16.15s6.34-16.15,16.15-16.15,16.15,6.34,16.15,16.15v16.15Zm29.62,0h-26.93v-5.39h26.93v5.39Z"/>
      <path class="cls-1" d="M99.7,167c9.81,0,16.15-6.34,16.15-16.15s-6.34-16.15-16.15-16.15h-16.15v16.15c0,9.81,6.34,16.15,16.15,16.15Z"/>
    </g>
    <rect class="cls-2" width="194" height="194"/>
  </g>
</svg>